<svg width="22" height="22" viewBox="0 0 22 22" fill="none" xmlns="http://www.w3.org/2000/svg">
<g clip-path="url(#clip0_1_3320)">
<path d="M12.9672 3.07514L20.4353 10.5423L0.458347 10.5423C0.205218 10.5423 -3.91452e-07 10.7475 -3.80387e-07 11.0006C-3.69323e-07 11.2538 0.205218 11.459 0.458347 11.459L20.4353 11.459L12.9672 18.9261C12.7913 19.1082 12.7964 19.3984 12.9784 19.5742C13.156 19.7458 13.4376 19.7458 13.6152 19.5742L21.8652 11.3242C22.0444 11.1455 22.0448 10.8553 21.866 10.676C21.8658 10.6758 21.8655 10.6755 21.8652 10.6752L13.6152 2.42523C13.4331 2.24936 13.143 2.25443 12.9671 2.43649C12.7955 2.61412 12.7955 2.8957 12.9671 3.07333L12.9672 3.07514Z" fill="#FFC107"/>
<path d="M22.0003 11.0004C22.0005 11.1221 21.9523 11.2388 21.8664 11.3249L13.6164 19.5749C13.4343 19.7508 13.1441 19.7457 12.9683 19.5637C12.7967 19.3861 12.7967 19.1045 12.9683 18.9269L20.8938 11.0005L12.9683 3.07499C12.7924 2.89293 12.7975 2.60277 12.9795 2.4269C13.1572 2.25532 13.4387 2.25532 13.6164 2.4269L21.8664 10.6769C21.9521 10.7627 22.0002 10.8791 22.0003 11.0004Z" fill="white"/>
<path d="M22 11.0006C22 11.2538 21.7948 11.459 21.5417 11.459L0.458348 11.459C0.205219 11.4589 -8.97079e-09 11.2538 -2.00359e-08 11.0006C-3.1101e-08 10.7475 0.205219 10.5422 0.458348 10.5422L21.5417 10.5422C21.7948 10.5422 22 10.7475 22 11.0006Z" fill="white"/>
</g>
<defs>
<clipPath id="clip0_1_3320">
<rect width="22" height="22" fill="white" transform="translate(0 22) rotate(-90)"/>
</clipPath>
</defs>
</svg>
