<svg width="25" height="26" viewBox="0 0 25 26" fill="none" xmlns="http://www.w3.org/2000/svg">
<path d="M17.2744 14.758C16.7684 14.2585 16.1368 14.2585 15.6341 14.758C15.2506 15.1383 14.8671 15.5186 14.49 15.9053C14.3869 16.0116 14.2999 16.0342 14.1742 15.9633C13.926 15.8279 13.6618 15.7184 13.4233 15.5701C12.3115 14.8708 11.3801 13.9717 10.5551 12.9598C10.1459 12.457 9.7817 11.9188 9.52711 11.313C9.47554 11.1905 9.48521 11.1099 9.58512 11.01C9.96861 10.6394 10.3424 10.2592 10.7195 9.87888C11.2448 9.35037 11.2448 8.73161 10.7163 8.19987C10.4166 7.89694 10.1169 7.60046 9.81715 7.29753C9.50777 6.98815 9.20162 6.67555 8.88902 6.3694C8.38306 5.87633 7.75142 5.87633 7.24868 6.37262C6.86196 6.7529 6.49136 7.14284 6.09819 7.51667C5.73403 7.86149 5.55034 8.28366 5.51167 8.77673C5.45044 9.57918 5.64702 10.3365 5.92417 11.0745C6.49136 12.602 7.35503 13.9588 8.4024 15.2027C9.81715 16.885 11.5058 18.2159 13.4813 19.1763C14.3708 19.6081 15.2925 19.94 16.2947 19.9948C16.9844 20.0335 17.5838 19.8595 18.0639 19.3213C18.3927 18.9539 18.7633 18.6188 19.1113 18.2675C19.6269 17.7454 19.6302 17.1138 19.1178 16.5981C18.5055 15.9826 17.8899 15.3703 17.2744 14.758Z" fill="#929AA2"/>
</svg>
