<svg width="23" height="24" viewBox="0 0 23 24" fill="none" xmlns="http://www.w3.org/2000/svg">
<path d="M20.3205 22.6897L20.3439 22.6522L22.6769 17.9167L15.8619 12.8054L12.7263 15.157C11.5438 15.0866 10.4281 14.5851 9.59049 13.7475C8.75285 12.9098 8.25139 11.7942 8.18104 10.6116L10.5326 7.47607L5.42145 0.661133L0.725491 2.97474L0.685842 2.99421L0.648436 3.01767C0.449498 3.14114 0.28547 3.31347 0.171968 3.51825C0.0584664 3.72304 -0.000731851 3.95347 6.8291e-06 4.1876L6.77569e-06 5.40954C6.67276e-06 7.76395 0.463742 10.0953 1.36474 12.2705C2.26573 14.4457 3.58635 16.4221 5.25117 18.0869C6.91599 19.7518 8.89242 21.0724 11.0676 21.9734C13.2428 22.8744 15.5742 23.3381 17.9286 23.3381H19.1506C19.3847 23.3388 19.6151 23.2796 19.8199 23.1661C20.0247 23.0526 20.197 22.8886 20.3205 22.6897ZM17.9286 21.5881C9.00769 21.5881 1.75001 14.3304 1.75001 5.40954V4.42079L4.89251 2.87281L8.34521 7.4764L6.423 10.0394V10.3311C6.42495 12.0768 7.11929 13.7504 8.35367 14.9848C9.58806 16.2192 11.2617 16.9135 13.0074 16.9155H13.299L15.862 14.9933L20.4653 18.4456L18.9171 21.5881H17.9286Z" fill="white"/>
</svg>
