<svg width="18" height="18" viewBox="0 0 18 18" fill="none" xmlns="http://www.w3.org/2000/svg">
<path d="M16.129 17.4858L16.1476 17.4561L17.9994 13.6972L12.59 9.64011L10.1011 11.5067C9.16243 11.4508 8.27685 11.0528 7.61197 10.3879C6.94708 9.72299 6.54904 8.83741 6.4932 7.89877L8.35977 5.4099L4.30276 0.000487683L0.575306 1.83693L0.543835 1.85239L0.514144 1.87101C0.356235 1.96901 0.226037 2.1058 0.135944 2.26835C0.045851 2.4309 -0.00113804 2.6138 -0.000551704 2.79965L-0.000551746 3.76957C-0.000551828 5.63841 0.367542 7.48894 1.08271 9.21551C1.79789 10.9421 2.84613 12.5109 4.1676 13.8324C5.48906 15.1538 7.05787 16.2021 8.78445 16.9172C10.511 17.6324 12.3616 18.0005 14.2304 18.0005L15.2004 18.0005C15.3862 18.0011 15.5691 17.9541 15.7317 17.864C15.8942 17.7739 16.031 17.6437 16.129 17.4858V17.4858ZM14.2304 16.6114C7.14937 16.6114 1.38852 10.8506 1.38852 3.76957L1.38852 2.98474L3.88291 1.75602L6.62351 5.41016L5.09775 7.44459L5.09775 7.67609C5.0993 9.06174 5.65043 10.3902 6.63023 11.37C7.61004 12.3498 8.93849 12.9009 10.3241 12.9025L10.5556 12.9025L12.59 11.3767L16.2439 14.117L15.015 16.6114L14.2304 16.6114Z" fill="#333333"/>
</svg>
