<svg width="23" height="23" viewBox="0 0 23 23" fill="none" xmlns="http://www.w3.org/2000/svg">
<path fill-rule="evenodd" clip-rule="evenodd" d="M11.5 22.0417C5.67798 22.0417 0.958313 17.322 0.958313 11.5C0.958313 5.67804 5.67798 0.958374 11.5 0.958374C17.322 0.958374 22.0416 5.67804 22.0416 11.5C22.0416 17.322 17.322 22.0417 11.5 22.0417ZM18.5912 16.4112C19.5582 15.0174 20.125 13.3249 20.125 11.5C20.125 6.73658 16.2634 2.87504 11.5 2.87504C6.73652 2.87504 2.87498 6.73658 2.87498 11.5C2.87498 13.3249 3.44172 15.0174 4.4088 16.4112C5.48735 14.9865 8.02181 14.375 11.5 14.375C14.9782 14.375 17.5126 14.9865 18.5912 16.4112ZM17.2161 17.959C16.9356 16.9504 14.9206 16.2917 11.5 16.2917C8.07932 16.2917 6.06432 16.9504 5.78383 17.959C7.30564 19.3068 9.30725 20.125 11.5 20.125C13.6927 20.125 15.6943 19.3068 17.2161 17.959ZM11.5 14.375C9.35414 14.375 7.66665 12.8679 7.66665 9.58337C7.66665 7.43264 9.17995 5.75004 11.5 5.75004C13.8136 5.75004 15.3333 7.59155 15.3333 9.77504C15.3333 12.918 13.6256 14.375 11.5 14.375ZM9.58331 9.58337C9.58331 11.7581 10.3674 12.4584 11.5 12.4584C12.6286 12.4584 13.4166 11.786 13.4166 9.77504C13.4166 8.57752 12.665 7.66671 11.5 7.66671C10.2865 7.66671 9.58331 8.44854 9.58331 9.58337Z" fill="#929AA2"/>
</svg>
